%TF.GenerationSoftware,KiCad,Pcbnew,9.0.6*%
%TF.CreationDate,2026-02-13T17:23:14-06:00*%
%TF.ProjectId,Digital_PCB,44696769-7461-46c5-9f50-43422e6b6963,2.1*%
%TF.SameCoordinates,Original*%
%TF.FileFunction,Paste,Top*%
%TF.FilePolarity,Positive*%
%FSLAX46Y46*%
G04 Gerber Fmt 4.6, Leading zero omitted, Abs format (unit mm)*
G04 Created by KiCad (PCBNEW 9.0.6) date 2026-02-13 17:23:14*
%MOMM*%
%LPD*%
G01*
G04 APERTURE LIST*
G04 Aperture macros list*
%AMRoundRect*
0 Rectangle with rounded corners*
0 $1 Rounding radius*
0 $2 $3 $4 $5 $6 $7 $8 $9 X,Y pos of 4 corners*
0 Add a 4 corners polygon primitive as box body*
4,1,4,$2,$3,$4,$5,$6,$7,$8,$9,$2,$3,0*
0 Add four circle primitives for the rounded corners*
1,1,$1+$1,$2,$3*
1,1,$1+$1,$4,$5*
1,1,$1+$1,$6,$7*
1,1,$1+$1,$8,$9*
0 Add four rect primitives between the rounded corners*
20,1,$1+$1,$2,$3,$4,$5,0*
20,1,$1+$1,$4,$5,$6,$7,0*
20,1,$1+$1,$6,$7,$8,$9,0*
20,1,$1+$1,$8,$9,$2,$3,0*%
G04 Aperture macros list end*
%ADD10C,0.010000*%
%ADD11RoundRect,0.218750X0.256250X-0.218750X0.256250X0.218750X-0.256250X0.218750X-0.256250X-0.218750X0*%
%ADD12RoundRect,0.218750X-0.218750X-0.256250X0.218750X-0.256250X0.218750X0.256250X-0.218750X0.256250X0*%
%ADD13RoundRect,0.243750X0.456250X-0.243750X0.456250X0.243750X-0.456250X0.243750X-0.456250X-0.243750X0*%
%ADD14RoundRect,0.197500X-0.197500X-0.237500X0.197500X-0.237500X0.197500X0.237500X-0.197500X0.237500X0*%
%ADD15RoundRect,0.100000X-0.625000X-0.100000X0.625000X-0.100000X0.625000X0.100000X-0.625000X0.100000X0*%
%ADD16RoundRect,0.218750X0.218750X0.256250X-0.218750X0.256250X-0.218750X-0.256250X0.218750X-0.256250X0*%
%ADD17RoundRect,0.250000X0.375000X0.625000X-0.375000X0.625000X-0.375000X-0.625000X0.375000X-0.625000X0*%
%ADD18RoundRect,0.218750X-0.256250X0.218750X-0.256250X-0.218750X0.256250X-0.218750X0.256250X0.218750X0*%
%ADD19R,1.800000X1.200000*%
%ADD20R,1.550000X0.600000*%
%ADD21RoundRect,0.150000X0.150000X-0.825000X0.150000X0.825000X-0.150000X0.825000X-0.150000X-0.825000X0*%
%ADD22R,0.304800X0.863600*%
%ADD23R,0.863600X0.304800*%
%ADD24R,2.438400X2.438400*%
%ADD25R,0.400000X0.400000*%
%ADD26RoundRect,0.075000X-0.662500X-0.075000X0.662500X-0.075000X0.662500X0.075000X-0.662500X0.075000X0*%
%ADD27RoundRect,0.075000X-0.075000X-0.662500X0.075000X-0.662500X0.075000X0.662500X-0.075000X0.662500X0*%
%ADD28R,2.184400X2.184400*%
%ADD29R,2.300000X4.500000*%
%ADD30RoundRect,0.150000X-0.587500X-0.150000X0.587500X-0.150000X0.587500X0.150000X-0.587500X0.150000X0*%
%ADD31R,2.150000X5.500000*%
%ADD32RoundRect,0.250000X-0.375000X-0.625000X0.375000X-0.625000X0.375000X0.625000X-0.375000X0.625000X0*%
%ADD33R,1.900000X0.400000*%
%ADD34RoundRect,0.243750X0.243750X0.456250X-0.243750X0.456250X-0.243750X-0.456250X0.243750X-0.456250X0*%
%ADD35R,0.355600X1.308100*%
%ADD36R,1.193800X1.397000*%
%ADD37RoundRect,0.150000X0.150000X-0.587500X0.150000X0.587500X-0.150000X0.587500X-0.150000X-0.587500X0*%
G04 APERTURE END LIST*
D10*
%TO.C,U11*%
X135296000Y-122579000D02*
X135396000Y-122579000D01*
X135396000Y-123979000D01*
X134696000Y-123979000D01*
X134696000Y-122579000D01*
X134796000Y-122579000D01*
X134796000Y-121679000D01*
X135296000Y-121679000D01*
X135296000Y-122579000D01*
G36*
X135296000Y-122579000D02*
G01*
X135396000Y-122579000D01*
X135396000Y-123979000D01*
X134696000Y-123979000D01*
X134696000Y-122579000D01*
X134796000Y-122579000D01*
X134796000Y-121679000D01*
X135296000Y-121679000D01*
X135296000Y-122579000D01*
G37*
X135396000Y-112879000D02*
X135296000Y-112879000D01*
X135296000Y-113779000D01*
X134796000Y-113779000D01*
X134796000Y-112879000D01*
X134696000Y-112879000D01*
X134696000Y-111479000D01*
X135396000Y-111479000D01*
X135396000Y-112879000D01*
G36*
X135396000Y-112879000D02*
G01*
X135296000Y-112879000D01*
X135296000Y-113779000D01*
X134796000Y-113779000D01*
X134796000Y-112879000D01*
X134696000Y-112879000D01*
X134696000Y-111479000D01*
X135396000Y-111479000D01*
X135396000Y-112879000D01*
G37*
X136446000Y-122579000D02*
X136546000Y-122579000D01*
X136546000Y-123979000D01*
X135746000Y-123979000D01*
X135746000Y-122579000D01*
X135846000Y-122579000D01*
X135846000Y-121679000D01*
X136446000Y-121679000D01*
X136446000Y-122579000D01*
G36*
X136446000Y-122579000D02*
G01*
X136546000Y-122579000D01*
X136546000Y-123979000D01*
X135746000Y-123979000D01*
X135746000Y-122579000D01*
X135846000Y-122579000D01*
X135846000Y-121679000D01*
X136446000Y-121679000D01*
X136446000Y-122579000D01*
G37*
X136546000Y-112879000D02*
X136446000Y-112879000D01*
X136446000Y-113779000D01*
X135846000Y-113779000D01*
X135846000Y-112879000D01*
X135746000Y-112879000D01*
X135746000Y-111479000D01*
X136546000Y-111479000D01*
X136546000Y-112879000D01*
G36*
X136546000Y-112879000D02*
G01*
X136446000Y-112879000D01*
X136446000Y-113779000D01*
X135846000Y-113779000D01*
X135846000Y-112879000D01*
X135746000Y-112879000D01*
X135746000Y-111479000D01*
X136546000Y-111479000D01*
X136546000Y-112879000D01*
G37*
X137546000Y-122579000D02*
X137646000Y-122579000D01*
X137646000Y-123979000D01*
X136846000Y-123979000D01*
X136846000Y-122579000D01*
X136946000Y-122579000D01*
X136946000Y-121679000D01*
X137546000Y-121679000D01*
X137546000Y-122579000D01*
G36*
X137546000Y-122579000D02*
G01*
X137646000Y-122579000D01*
X137646000Y-123979000D01*
X136846000Y-123979000D01*
X136846000Y-122579000D01*
X136946000Y-122579000D01*
X136946000Y-121679000D01*
X137546000Y-121679000D01*
X137546000Y-122579000D01*
G37*
X137646000Y-112879000D02*
X137546000Y-112879000D01*
X137546000Y-113779000D01*
X136946000Y-113779000D01*
X136946000Y-112879000D01*
X136846000Y-112879000D01*
X136846000Y-111479000D01*
X137646000Y-111479000D01*
X137646000Y-112879000D01*
G36*
X137646000Y-112879000D02*
G01*
X137546000Y-112879000D01*
X137546000Y-113779000D01*
X136946000Y-113779000D01*
X136946000Y-112879000D01*
X136846000Y-112879000D01*
X136846000Y-111479000D01*
X137646000Y-111479000D01*
X137646000Y-112879000D01*
G37*
X138646000Y-122579000D02*
X138746000Y-122579000D01*
X138746000Y-123979000D01*
X137946000Y-123979000D01*
X137946000Y-122579000D01*
X138046000Y-122579000D01*
X138046000Y-121679000D01*
X138646000Y-121679000D01*
X138646000Y-122579000D01*
G36*
X138646000Y-122579000D02*
G01*
X138746000Y-122579000D01*
X138746000Y-123979000D01*
X137946000Y-123979000D01*
X137946000Y-122579000D01*
X138046000Y-122579000D01*
X138046000Y-121679000D01*
X138646000Y-121679000D01*
X138646000Y-122579000D01*
G37*
X138746000Y-112879000D02*
X138646000Y-112879000D01*
X138646000Y-113779000D01*
X138046000Y-113779000D01*
X138046000Y-112879000D01*
X137946000Y-112879000D01*
X137946000Y-111479000D01*
X138746000Y-111479000D01*
X138746000Y-112879000D01*
G36*
X138746000Y-112879000D02*
G01*
X138646000Y-112879000D01*
X138646000Y-113779000D01*
X138046000Y-113779000D01*
X138046000Y-112879000D01*
X137946000Y-112879000D01*
X137946000Y-111479000D01*
X138746000Y-111479000D01*
X138746000Y-112879000D01*
G37*
X139746000Y-122579000D02*
X139846000Y-122579000D01*
X139846000Y-123979000D01*
X139046000Y-123979000D01*
X139046000Y-122579000D01*
X139146000Y-122579000D01*
X139146000Y-121679000D01*
X139746000Y-121679000D01*
X139746000Y-122579000D01*
G36*
X139746000Y-122579000D02*
G01*
X139846000Y-122579000D01*
X139846000Y-123979000D01*
X139046000Y-123979000D01*
X139046000Y-122579000D01*
X139146000Y-122579000D01*
X139146000Y-121679000D01*
X139746000Y-121679000D01*
X139746000Y-122579000D01*
G37*
X139846000Y-112879000D02*
X139746000Y-112879000D01*
X139746000Y-113779000D01*
X139146000Y-113779000D01*
X139146000Y-112879000D01*
X139046000Y-112879000D01*
X139046000Y-111479000D01*
X139846000Y-111479000D01*
X139846000Y-112879000D01*
G36*
X139846000Y-112879000D02*
G01*
X139746000Y-112879000D01*
X139746000Y-113779000D01*
X139146000Y-113779000D01*
X139146000Y-112879000D01*
X139046000Y-112879000D01*
X139046000Y-111479000D01*
X139846000Y-111479000D01*
X139846000Y-112879000D01*
G37*
X140846000Y-122579000D02*
X140946000Y-122579000D01*
X140946000Y-123979000D01*
X140146000Y-123979000D01*
X140146000Y-122579000D01*
X140246000Y-122579000D01*
X140246000Y-121679000D01*
X140846000Y-121679000D01*
X140846000Y-122579000D01*
G36*
X140846000Y-122579000D02*
G01*
X140946000Y-122579000D01*
X140946000Y-123979000D01*
X140146000Y-123979000D01*
X140146000Y-122579000D01*
X140246000Y-122579000D01*
X140246000Y-121679000D01*
X140846000Y-121679000D01*
X140846000Y-122579000D01*
G37*
X140946000Y-112879000D02*
X140846000Y-112879000D01*
X140846000Y-113779000D01*
X140246000Y-113779000D01*
X140246000Y-112879000D01*
X140146000Y-112879000D01*
X140146000Y-111479000D01*
X140946000Y-111479000D01*
X140946000Y-112879000D01*
G36*
X140946000Y-112879000D02*
G01*
X140846000Y-112879000D01*
X140846000Y-113779000D01*
X140246000Y-113779000D01*
X140246000Y-112879000D01*
X140146000Y-112879000D01*
X140146000Y-111479000D01*
X140946000Y-111479000D01*
X140946000Y-112879000D01*
G37*
X141946000Y-122579000D02*
X142046000Y-122579000D01*
X142046000Y-123979000D01*
X141246000Y-123979000D01*
X141246000Y-122579000D01*
X141346000Y-122579000D01*
X141346000Y-121679000D01*
X141946000Y-121679000D01*
X141946000Y-122579000D01*
G36*
X141946000Y-122579000D02*
G01*
X142046000Y-122579000D01*
X142046000Y-123979000D01*
X141246000Y-123979000D01*
X141246000Y-122579000D01*
X141346000Y-122579000D01*
X141346000Y-121679000D01*
X141946000Y-121679000D01*
X141946000Y-122579000D01*
G37*
X142046000Y-112879000D02*
X141946000Y-112879000D01*
X141946000Y-113779000D01*
X141346000Y-113779000D01*
X141346000Y-112879000D01*
X141246000Y-112879000D01*
X141246000Y-111479000D01*
X142046000Y-111479000D01*
X142046000Y-112879000D01*
G36*
X142046000Y-112879000D02*
G01*
X141946000Y-112879000D01*
X141946000Y-113779000D01*
X141346000Y-113779000D01*
X141346000Y-112879000D01*
X141246000Y-112879000D01*
X141246000Y-111479000D01*
X142046000Y-111479000D01*
X142046000Y-112879000D01*
G37*
X143046000Y-122579000D02*
X143146000Y-122579000D01*
X143146000Y-123979000D01*
X142346000Y-123979000D01*
X142346000Y-122579000D01*
X142446000Y-122579000D01*
X142446000Y-121679000D01*
X143046000Y-121679000D01*
X143046000Y-122579000D01*
G36*
X143046000Y-122579000D02*
G01*
X143146000Y-122579000D01*
X143146000Y-123979000D01*
X142346000Y-123979000D01*
X142346000Y-122579000D01*
X142446000Y-122579000D01*
X142446000Y-121679000D01*
X143046000Y-121679000D01*
X143046000Y-122579000D01*
G37*
X143146000Y-112879000D02*
X143046000Y-112879000D01*
X143046000Y-113779000D01*
X142446000Y-113779000D01*
X142446000Y-112879000D01*
X142346000Y-112879000D01*
X142346000Y-111479000D01*
X143146000Y-111479000D01*
X143146000Y-112879000D01*
G36*
X143146000Y-112879000D02*
G01*
X143046000Y-112879000D01*
X143046000Y-113779000D01*
X142446000Y-113779000D01*
X142446000Y-112879000D01*
X142346000Y-112879000D01*
X142346000Y-111479000D01*
X143146000Y-111479000D01*
X143146000Y-112879000D01*
G37*
X144096000Y-122579000D02*
X144196000Y-122579000D01*
X144196000Y-123979000D01*
X143496000Y-123979000D01*
X143496000Y-122579000D01*
X143596000Y-122579000D01*
X143596000Y-121679000D01*
X144096000Y-121679000D01*
X144096000Y-122579000D01*
G36*
X144096000Y-122579000D02*
G01*
X144196000Y-122579000D01*
X144196000Y-123979000D01*
X143496000Y-123979000D01*
X143496000Y-122579000D01*
X143596000Y-122579000D01*
X143596000Y-121679000D01*
X144096000Y-121679000D01*
X144096000Y-122579000D01*
G37*
X144196000Y-112879000D02*
X144096000Y-112879000D01*
X144096000Y-113779000D01*
X143596000Y-113779000D01*
X143596000Y-112879000D01*
X143496000Y-112879000D01*
X143496000Y-111479000D01*
X144196000Y-111479000D01*
X144196000Y-112879000D01*
G36*
X144196000Y-112879000D02*
G01*
X144096000Y-112879000D01*
X144096000Y-113779000D01*
X143596000Y-113779000D01*
X143596000Y-112879000D01*
X143496000Y-112879000D01*
X143496000Y-111479000D01*
X144196000Y-111479000D01*
X144196000Y-112879000D01*
G37*
%TD*%
D11*
%TO.C,R28*%
X148463000Y-85750500D03*
X148463000Y-84175500D03*
%TD*%
D12*
%TO.C,R7*%
X136118500Y-82329000D03*
X137693500Y-82329000D03*
%TD*%
%TO.C,R19*%
X145028701Y-105219500D03*
X146603701Y-105219500D03*
%TD*%
D11*
%TO.C,R34*%
X168656000Y-94894500D03*
X168656000Y-93319500D03*
%TD*%
D13*
%TO.C,C8*%
X124460000Y-89456500D03*
X124460000Y-87581500D03*
%TD*%
D11*
%TO.C,R31*%
X149987000Y-85750500D03*
X149987000Y-84175500D03*
%TD*%
D14*
%TO.C,U3*%
X128669000Y-87947000D03*
X128669000Y-89027000D03*
X129649000Y-87947000D03*
X129649000Y-89027000D03*
D15*
X127009000Y-87512000D03*
X127009000Y-88162000D03*
X127009000Y-88812000D03*
X127009000Y-89462000D03*
X131309000Y-89462000D03*
X131309000Y-88812000D03*
X131309000Y-88162000D03*
X131309000Y-87512000D03*
%TD*%
D13*
%TO.C,D3*%
X152527000Y-131391900D03*
X152527000Y-129516900D03*
%TD*%
D16*
%TO.C,R24*%
X127279500Y-91059000D03*
X125704500Y-91059000D03*
%TD*%
D11*
%TO.C,R23*%
X122682000Y-89306500D03*
X122682000Y-87731500D03*
%TD*%
D17*
%TO.C,C6*%
X133523400Y-82505800D03*
X130723400Y-82505800D03*
%TD*%
D16*
%TO.C,C1*%
X159100501Y-108115100D03*
X157525501Y-108115100D03*
%TD*%
D11*
%TO.C,C16*%
X155575000Y-77622500D03*
X155575000Y-76047500D03*
%TD*%
D12*
%TO.C,R17*%
X170662500Y-84074000D03*
X172237500Y-84074000D03*
%TD*%
D18*
%TO.C,C5*%
X178054000Y-87350500D03*
X178054000Y-88925500D03*
%TD*%
D19*
%TO.C,J4*%
X109275000Y-137166000D03*
X109275000Y-131566000D03*
D20*
X113150000Y-132866000D03*
X113150000Y-133866000D03*
X113150000Y-134866000D03*
X113150000Y-135866000D03*
%TD*%
D21*
%TO.C,U7*%
X141478000Y-79310000D03*
X142748000Y-79310000D03*
X144018000Y-79310000D03*
X145288000Y-79310000D03*
X145288000Y-74360000D03*
X144018000Y-74360000D03*
X142748000Y-74360000D03*
X141478000Y-74360000D03*
%TD*%
D22*
%TO.C,U9*%
X122215001Y-140627100D03*
X122864999Y-140627100D03*
X123515001Y-140627100D03*
X124164999Y-140627100D03*
D23*
X125133100Y-139658999D03*
X125133100Y-139009001D03*
X125133100Y-138358999D03*
X125133100Y-137709001D03*
D22*
X124164999Y-136740900D03*
X123515001Y-136740900D03*
X122864999Y-136740900D03*
X122215001Y-136740900D03*
D23*
X121246900Y-137709001D03*
X121246900Y-138358999D03*
X121246900Y-139009001D03*
X121246900Y-139658999D03*
D24*
X123190000Y-138684000D03*
%TD*%
D16*
%TO.C,C11*%
X166649500Y-97282000D03*
X165074500Y-97282000D03*
%TD*%
D25*
%TO.C,U6*%
X135579000Y-87065000D03*
X136379000Y-87065000D03*
X137179000Y-87065000D03*
X137979000Y-87065000D03*
X137979000Y-89465000D03*
X137179000Y-89465000D03*
X136379000Y-89465000D03*
X135579000Y-89465000D03*
%TD*%
D26*
%TO.C,U1*%
X149253500Y-100755000D03*
X149253500Y-101255000D03*
X149253500Y-101755000D03*
X149253500Y-102255000D03*
X149253500Y-102755000D03*
X149253500Y-103255000D03*
X149253500Y-103755000D03*
X149253500Y-104255000D03*
X149253500Y-104755000D03*
X149253500Y-105255000D03*
X149253500Y-105755000D03*
X149253500Y-106255000D03*
D27*
X150666000Y-107667500D03*
X151166000Y-107667500D03*
X151666000Y-107667500D03*
X152166000Y-107667500D03*
X152666000Y-107667500D03*
X153166000Y-107667500D03*
X153666000Y-107667500D03*
X154166000Y-107667500D03*
X154666000Y-107667500D03*
X155166000Y-107667500D03*
X155666000Y-107667500D03*
X156166000Y-107667500D03*
D26*
X157578500Y-106255000D03*
X157578500Y-105755000D03*
X157578500Y-105255000D03*
X157578500Y-104755000D03*
X157578500Y-104255000D03*
X157578500Y-103755000D03*
X157578500Y-103255000D03*
X157578500Y-102755000D03*
X157578500Y-102255000D03*
X157578500Y-101755000D03*
X157578500Y-101255000D03*
X157578500Y-100755000D03*
D27*
X156166000Y-99342500D03*
X155666000Y-99342500D03*
X155166000Y-99342500D03*
X154666000Y-99342500D03*
X154166000Y-99342500D03*
X153666000Y-99342500D03*
X153166000Y-99342500D03*
X152666000Y-99342500D03*
X152166000Y-99342500D03*
X151666000Y-99342500D03*
X151166000Y-99342500D03*
X150666000Y-99342500D03*
%TD*%
D28*
%TO.C,D2*%
X128955800Y-104648000D03*
X132664200Y-104648000D03*
%TD*%
D18*
%TO.C,R35*%
X152527000Y-126339500D03*
X152527000Y-127914500D03*
%TD*%
%TO.C,C9*%
X152400000Y-88112500D03*
X152400000Y-89687500D03*
%TD*%
D29*
%TO.C,BT1*%
X124587000Y-115977000D03*
X124587000Y-132377000D03*
%TD*%
D30*
%TO.C,D1*%
X123395500Y-109662000D03*
X123395500Y-107762000D03*
X125270500Y-108712000D03*
%TD*%
D18*
%TO.C,R5*%
X147289401Y-101130000D03*
X147289401Y-102705000D03*
%TD*%
D11*
%TO.C,R12*%
X151150201Y-112001400D03*
X151150201Y-110426400D03*
%TD*%
D18*
%TO.C,R4*%
X157353000Y-86334500D03*
X157353000Y-87909500D03*
%TD*%
%TO.C,R2*%
X160401000Y-86334500D03*
X160401000Y-87909500D03*
%TD*%
%TO.C,C15*%
X148463000Y-76047500D03*
X148463000Y-77622500D03*
%TD*%
D12*
%TO.C,R22*%
X122783500Y-85598000D03*
X124358500Y-85598000D03*
%TD*%
%TO.C,C22*%
X127355500Y-137668000D03*
X128930500Y-137668000D03*
%TD*%
%TO.C,R6*%
X136118500Y-83853000D03*
X137693500Y-83853000D03*
%TD*%
D18*
%TO.C,R36*%
X180340000Y-123291500D03*
X180340000Y-124866500D03*
%TD*%
D11*
%TO.C,R8*%
X154198201Y-112001400D03*
X154198201Y-110426400D03*
%TD*%
%TO.C,R10*%
X170688000Y-88671500D03*
X170688000Y-87096500D03*
%TD*%
D16*
%TO.C,C25*%
X152628700Y-118057200D03*
X151053700Y-118057200D03*
%TD*%
D18*
%TO.C,R33*%
X170180000Y-93319500D03*
X170180000Y-94894500D03*
%TD*%
D16*
%TO.C,C27*%
X137693500Y-127000000D03*
X136118500Y-127000000D03*
%TD*%
D18*
%TO.C,R1*%
X161925000Y-86334500D03*
X161925000Y-87909500D03*
%TD*%
D31*
%TO.C,L1*%
X134132000Y-78060800D03*
X130282000Y-78060800D03*
%TD*%
D13*
%TO.C,D4*%
X180340000Y-132001500D03*
X180340000Y-130126500D03*
%TD*%
D11*
%TO.C,R29*%
X146939000Y-85750500D03*
X146939000Y-84175500D03*
%TD*%
%TO.C,R16*%
X176571600Y-88928500D03*
X176571600Y-87353500D03*
%TD*%
D18*
%TO.C,R3*%
X158877000Y-86334500D03*
X158877000Y-87909500D03*
%TD*%
D11*
%TO.C,R30*%
X151511000Y-85750500D03*
X151511000Y-84175500D03*
%TD*%
D32*
%TO.C,C7*%
X130807000Y-73615800D03*
X133607000Y-73615800D03*
%TD*%
D18*
%TO.C,R37*%
X180340000Y-126339500D03*
X180340000Y-127914500D03*
%TD*%
D16*
%TO.C,C24*%
X152628700Y-119581200D03*
X151053700Y-119581200D03*
%TD*%
D11*
%TO.C,R11*%
X152674201Y-112001400D03*
X152674201Y-110426400D03*
%TD*%
%TO.C,C18*%
X146939000Y-77622500D03*
X146939000Y-76047500D03*
%TD*%
D16*
%TO.C,C12*%
X149352000Y-97282000D03*
X147777000Y-97282000D03*
%TD*%
%TO.C,C13*%
X137693500Y-90965000D03*
X136118500Y-90965000D03*
%TD*%
D12*
%TO.C,C14*%
X136118500Y-85377000D03*
X137693500Y-85377000D03*
%TD*%
D16*
%TO.C,R18*%
X172237500Y-85598000D03*
X170662500Y-85598000D03*
%TD*%
D12*
%TO.C,R39*%
X139166500Y-128524000D03*
X140741500Y-128524000D03*
%TD*%
D11*
%TO.C,R26*%
X145415000Y-85750500D03*
X145415000Y-84175500D03*
%TD*%
D21*
%TO.C,U8*%
X150114000Y-79310000D03*
X151384000Y-79310000D03*
X152654000Y-79310000D03*
X153924000Y-79310000D03*
X153924000Y-74360000D03*
X152654000Y-74360000D03*
X151384000Y-74360000D03*
X150114000Y-74360000D03*
%TD*%
D11*
%TO.C,R32*%
X153035000Y-85750500D03*
X153035000Y-84175500D03*
%TD*%
D16*
%TO.C,C2*%
X159151301Y-98869500D03*
X157576301Y-98869500D03*
%TD*%
D33*
%TO.C,Y1*%
X144851001Y-100717500D03*
X144851001Y-101917500D03*
X144851001Y-103117500D03*
%TD*%
D34*
%TO.C,C23*%
X152778700Y-116330000D03*
X150903700Y-116330000D03*
%TD*%
D12*
%TO.C,C3*%
X147746501Y-108115100D03*
X149321501Y-108115100D03*
%TD*%
%TO.C,L2*%
X136118500Y-128524000D03*
X137693500Y-128524000D03*
%TD*%
D18*
%TO.C,C17*%
X139827000Y-76047500D03*
X139827000Y-77622500D03*
%TD*%
D16*
%TO.C,R20*%
X159156500Y-97282000D03*
X157581500Y-97282000D03*
%TD*%
D13*
%TO.C,C19*%
X119380000Y-139621500D03*
X119380000Y-137746500D03*
%TD*%
D11*
%TO.C,R15*%
X149626201Y-112001400D03*
X149626201Y-110426400D03*
%TD*%
D12*
%TO.C,R38*%
X141988208Y-105211238D03*
X143563208Y-105211238D03*
%TD*%
%TO.C,R21*%
X123545500Y-111252000D03*
X125120500Y-111252000D03*
%TD*%
D18*
%TO.C,C26*%
X180340000Y-120243500D03*
X180340000Y-121818500D03*
%TD*%
D35*
%TO.C,U4*%
X150626000Y-88157050D03*
X149975999Y-88157050D03*
X149326001Y-88157050D03*
X148675999Y-88157050D03*
X148026001Y-88157050D03*
X147376002Y-88157050D03*
X146726001Y-88157050D03*
X146076002Y-88157050D03*
X145426001Y-88157050D03*
X144776002Y-88157050D03*
X144776000Y-93960950D03*
X145425998Y-93960950D03*
X146075999Y-93960950D03*
X146725998Y-93960950D03*
X147375999Y-93960950D03*
X148025998Y-93960950D03*
X148675999Y-93960950D03*
X149325998Y-93960950D03*
X149975999Y-93960950D03*
X150625998Y-93960950D03*
%TD*%
D36*
%TO.C,U5*%
X166812001Y-95207000D03*
X166812001Y-93007000D03*
X164911999Y-93007000D03*
X164911999Y-95207000D03*
%TD*%
D12*
%TO.C,C20*%
X155676500Y-72136000D03*
X157251500Y-72136000D03*
%TD*%
D11*
%TO.C,R27*%
X143891000Y-85750500D03*
X143891000Y-84175500D03*
%TD*%
%TO.C,R9*%
X169164000Y-88671500D03*
X169164000Y-87096500D03*
%TD*%
D16*
%TO.C,R13*%
X169189500Y-84074000D03*
X167614500Y-84074000D03*
%TD*%
D11*
%TO.C,C10*%
X152400000Y-93980000D03*
X152400000Y-92405000D03*
%TD*%
D12*
%TO.C,C4*%
X147771901Y-98869500D03*
X149346901Y-98869500D03*
%TD*%
%TO.C,C28*%
X139166500Y-127000000D03*
X140741500Y-127000000D03*
%TD*%
%TO.C,R14*%
X167614500Y-85598000D03*
X169189500Y-85598000D03*
%TD*%
D11*
%TO.C,R25*%
X142367000Y-85750500D03*
X142367000Y-84175500D03*
%TD*%
D37*
%TO.C,Q1*%
X123383000Y-105760500D03*
X125283000Y-105760500D03*
X124333000Y-103885500D03*
%TD*%
D12*
%TO.C,C21*%
X155676500Y-73660000D03*
X157251500Y-73660000D03*
%TD*%
M02*
